<?xml version="1.0" encoding="UTF-8" standalone="no"?>
<!DOCTYPE svg PUBLIC "-//W3C//DTD SVG 1.1//EN"
 "http://www.w3.org/Graphics/SVG/1.1/DTD/svg11.dtd">
<!-- Generated by graphviz version 2.38.0 (20140413.2041)
 -->
<!-- Title: DR_cleanup Pages: 1 -->
<svg width="863pt" height="305pt"
 viewBox="0.00 0.00 863.00 305.00" xmlns="http://www.w3.org/2000/svg" xmlns:xlink="http://www.w3.org/1999/xlink">
<g id="graph0" class="graph" transform="scale(1 1) rotate(0) translate(4 301)">
<title>DR_cleanup</title>
<polygon fill="white" stroke="none" points="-4,4 -4,-301 859,-301 859,4 -4,4"/>
<g id="clust1" class="cluster"><title>clusterL</title>
<polygon fill="none" stroke="black" points="8,-79 8,-218 302,-218 302,-79 8,-79"/>
</g>
<g id="clust2" class="cluster"><title>clusterR</title>
<polygon fill="none" stroke="black" points="502,-79 502,-218 796,-218 796,-79 502,-79"/>
</g>
<!-- snapdir -->
<g id="node1" class="node"><title>snapdir</title>
<ellipse fill="none" stroke="black" cx="427" cy="-279" rx="46.2923" ry="18"/>
<text text-anchor="middle" x="427" y="-275.3" font-family="Times,serif" font-size="14.00">snapdir</text>
</g>
<!-- wrapup_0 -->
<g id="node2" class="node"><title>wrapup_0</title>
<ellipse fill="none" stroke="black" cx="243" cy="-192" rx="46.2923" ry="18"/>
<text text-anchor="middle" x="243" y="-188.3" font-family="Times,serif" font-size="14.00">wrapup</text>
</g>
<!-- snapdir&#45;&gt;wrapup_0 -->
<g id="edge1" class="edge"><title>snapdir&#45;&gt;wrapup_0</title>
<path fill="none" stroke="green" d="M398.25,-264.719C366.653,-250.122 315.765,-226.614 280.921,-210.518"/>
<polygon fill="green" stroke="green" points="282.094,-207.204 271.548,-206.188 279.158,-213.559 282.094,-207.204"/>
<text text-anchor="middle" x="393" y="-231.8" font-family="Times,serif" font-size="14.00" fill="green">(0)PRESENT</text>
</g>
<!-- wrapup_1 -->
<g id="node3" class="node"><title>wrapup_1</title>
<ellipse fill="none" stroke="black" cx="565" cy="-192" rx="46.2923" ry="18"/>
<text text-anchor="middle" x="565" y="-188.3" font-family="Times,serif" font-size="14.00">wrapup</text>
</g>
<!-- snapdir&#45;&gt;wrapup_1 -->
<g id="edge2" class="edge"><title>snapdir&#45;&gt;wrapup_1</title>
<path fill="none" stroke="red" d="M450.723,-263.388C473.235,-249.522 507.259,-228.565 532.331,-213.122"/>
<polygon fill="red" stroke="red" points="534.446,-215.93 541.125,-207.706 530.775,-209.97 534.446,-215.93"/>
<text text-anchor="middle" x="546" y="-231.8" font-family="Times,serif" font-size="14.00" fill="red">(1)ABSENT</text>
</g>
<!-- Archive -->
<g id="node4" class="node"><title>Archive</title>
<polygon fill="none" stroke="black" points="387,-36 315,-36 315,-0 387,-0 387,-36"/>
<text text-anchor="middle" x="351" y="-14.3" font-family="Times,serif" font-size="14.00">Archive</text>
</g>
<!-- wrapup_0&#45;&gt;Archive -->
<g id="edge3" class="edge"><title>wrapup_0&#45;&gt;Archive</title>
<path fill="none" stroke="green" stroke-dasharray="1,5" d="M262.244,-175.581C268.88,-169.799 276.118,-162.94 282,-156 310.495,-122.38 330.983,-74.9763 341.909,-45.6591"/>
<polygon fill="green" stroke="green" points="345.258,-46.69 345.372,-36.0957 338.676,-44.3064 345.258,-46.69"/>
<text text-anchor="middle" x="350" y="-101.3" font-family="Times,serif" font-size="14.00" fill="green">(0)OK</text>
</g>
<!-- TQ_01 -->
<g id="node5" class="node"><title>TQ_01</title>
<ellipse fill="none" stroke="black" cx="229" cy="-105" rx="64.9885" ry="18"/>
<text text-anchor="middle" x="229" y="-101.3" font-family="Times,serif" font-size="14.00">Task Queue</text>
</g>
<!-- wrapup_0&#45;&gt;TQ_01 -->
<g id="edge4" class="edge"><title>wrapup_0&#45;&gt;TQ_01</title>
<path fill="none" stroke="red" stroke-dasharray="1,5" d="M240.167,-173.799C238.25,-162.163 235.678,-146.548 233.486,-133.237"/>
<polygon fill="red" stroke="red" points="236.908,-132.474 231.829,-123.175 230.001,-133.611 236.908,-132.474"/>
<text text-anchor="middle" x="257.5" y="-144.8" font-family="Times,serif" font-size="14.00" fill="red">(1)ER</text>
</g>
<!-- TQ_02 -->
<g id="node6" class="node"><title>TQ_02</title>
<ellipse fill="none" stroke="black" cx="81" cy="-105" rx="64.9885" ry="18"/>
<text text-anchor="middle" x="81" y="-101.3" font-family="Times,serif" font-size="14.00">Task Queue</text>
</g>
<!-- wrapup_0&#45;&gt;TQ_02 -->
<g id="edge5" class="edge"><title>wrapup_0&#45;&gt;TQ_02</title>
<path fill="none" stroke="blue" stroke-dasharray="1,5" d="M216.611,-177.154C190.123,-163.256 149.051,-141.706 119.044,-125.962"/>
<polygon fill="blue" stroke="blue" points="120.597,-122.824 110.116,-121.277 117.345,-129.022 120.597,-122.824"/>
<text text-anchor="middle" x="193.5" y="-144.8" font-family="Times,serif" font-size="14.00" fill="blue">(2)NA</text>
</g>
<!-- wrapup_1&#45;&gt;Archive -->
<g id="edge12" class="edge"><title>wrapup_1&#45;&gt;Archive</title>
<path fill="none" stroke="green" stroke-dasharray="1,5" d="M532.9,-178.928C489.789,-161.163 413.472,-124.017 369,-69 363.617,-62.3407 359.771,-53.9379 357.056,-45.9312"/>
<polygon fill="green" stroke="green" points="360.363,-44.7725 354.19,-36.1623 353.647,-46.7432 360.363,-44.7725"/>
<text text-anchor="middle" x="450" y="-101.3" font-family="Times,serif" font-size="14.00" fill="green">(0)OK</text>
</g>
<!-- TQ_11 -->
<g id="node11" class="node"><title>TQ_11</title>
<ellipse fill="none" stroke="black" cx="575" cy="-105" rx="64.9885" ry="18"/>
<text text-anchor="middle" x="575" y="-101.3" font-family="Times,serif" font-size="14.00">Task Queue</text>
</g>
<!-- wrapup_1&#45;&gt;TQ_11 -->
<g id="edge13" class="edge"><title>wrapup_1&#45;&gt;TQ_11</title>
<path fill="none" stroke="red" stroke-dasharray="1,5" d="M567.024,-173.799C568.393,-162.163 570.23,-146.548 571.796,-133.237"/>
<polygon fill="red" stroke="red" points="575.287,-133.516 572.979,-123.175 568.335,-132.698 575.287,-133.516"/>
<text text-anchor="middle" x="591.5" y="-144.8" font-family="Times,serif" font-size="14.00" fill="red">(1)ER</text>
</g>
<!-- TQ_12 -->
<g id="node12" class="node"><title>TQ_12</title>
<ellipse fill="none" stroke="black" cx="723" cy="-105" rx="64.9885" ry="18"/>
<text text-anchor="middle" x="723" y="-101.3" font-family="Times,serif" font-size="14.00">Task Queue</text>
</g>
<!-- wrapup_1&#45;&gt;TQ_12 -->
<g id="edge14" class="edge"><title>wrapup_1&#45;&gt;TQ_12</title>
<path fill="none" stroke="blue" stroke-dasharray="1,5" d="M591.09,-176.964C616.795,-163.136 656.329,-141.867 685.418,-126.218"/>
<polygon fill="blue" stroke="blue" points="687.316,-129.171 694.465,-121.351 684,-123.007 687.316,-129.171"/>
<text text-anchor="middle" x="675.5" y="-144.8" font-family="Times,serif" font-size="14.00" fill="blue">(2)NA</text>
</g>
<!-- Attention -->
<g id="node7" class="node"><title>Attention</title>
<polygon fill="none" stroke="black" points="650,-36 516,-36 516,-0 650,-0 650,-36"/>
<text text-anchor="middle" x="583" y="-14.3" font-family="Times,serif" font-size="14.00">Needs Attention</text>
</g>
<!-- TQ_01&#45;&gt;Attention -->
<g id="edge6" class="edge"><title>TQ_01&#45;&gt;Attention</title>
<path fill="none" stroke="green" d="M266.281,-90.0628C279.3,-85.7712 294.129,-81.5175 308,-79 349.601,-71.4499 457.511,-81.1775 498,-69 517.188,-63.2292 536.596,-52.2852 552.013,-42.1039"/>
<polygon fill="green" stroke="green" points="554.313,-44.7719 560.598,-36.2424 550.365,-38.9909 554.313,-44.7719"/>
<text text-anchor="middle" x="552" y="-57.8" font-family="Times,serif" font-size="14.00" fill="green">(0)OK</text>
</g>
<!-- Fix -->
<g id="node8" class="node"><title>Fix</title>
<polygon fill="none" stroke="black" points="295,-36 163,-36 163,-0 295,-0 295,-36"/>
<text text-anchor="middle" x="229" y="-14.3" font-family="Times,serif" font-size="14.00">Fix Failed Tasks</text>
</g>
<!-- TQ_01&#45;&gt;Fix -->
<g id="edge7" class="edge"><title>TQ_01&#45;&gt;Fix</title>
<path fill="none" stroke="red" d="M229,-86.799C229,-75.1626 229,-59.5479 229,-46.2368"/>
<polygon fill="red" stroke="red" points="232.5,-46.1754 229,-36.1754 225.5,-46.1755 232.5,-46.1754"/>
<text text-anchor="middle" x="249.5" y="-57.8" font-family="Times,serif" font-size="14.00" fill="red">(1)ER</text>
</g>
<!-- Undefined -->
<g id="node9" class="node"><title>Undefined</title>
<polygon fill="none" stroke="black" points="495.5,-36 406.5,-36 406.5,-0 495.5,-0 495.5,-36"/>
<text text-anchor="middle" x="451" y="-14.3" font-family="Times,serif" font-size="14.00">Undefined</text>
</g>
<!-- TQ_01&#45;&gt;Undefined -->
<g id="edge8" class="edge"><title>TQ_01&#45;&gt;Undefined</title>
<path fill="none" stroke="blue" d="M265.659,-89.964C301.345,-76.3004 356.003,-55.3726 396.729,-39.7796"/>
<polygon fill="blue" stroke="blue" points="398.15,-42.983 406.238,-36.1387 395.647,-36.4458 398.15,-42.983"/>
<text text-anchor="middle" x="375.5" y="-57.8" font-family="Times,serif" font-size="14.00" fill="blue">(2)NA</text>
</g>
<!-- TQ_02&#45;&gt;Fix -->
<g id="edge10" class="edge"><title>TQ_02&#45;&gt;Fix</title>
<path fill="none" stroke="red" d="M108.145,-88.4097C131.212,-75.1621 164.596,-55.9886 190.435,-41.1487"/>
<polygon fill="red" stroke="red" points="192.302,-44.1126 199.231,-36.0972 188.816,-38.0425 192.302,-44.1126"/>
<text text-anchor="middle" x="184.5" y="-57.8" font-family="Times,serif" font-size="14.00" fill="red">(1)ER</text>
</g>
<!-- None -->
<g id="node10" class="node"><title>None</title>
<polygon fill="none" stroke="black" points="144.5,-36 55.5,-36 55.5,-0 144.5,-0 144.5,-36"/>
<text text-anchor="middle" x="100" y="-14.3" font-family="Times,serif" font-size="14.00">No Action</text>
</g>
<!-- TQ_02&#45;&gt;None -->
<g id="edge9" class="edge"><title>TQ_02&#45;&gt;None</title>
<path fill="none" stroke="green" d="M84.8449,-86.799C87.446,-75.1626 90.9364,-59.5479 93.9118,-46.2368"/>
<polygon fill="green" stroke="green" points="97.395,-46.6981 96.1608,-36.1754 90.5635,-45.1711 97.395,-46.6981"/>
<text text-anchor="middle" x="113" y="-57.8" font-family="Times,serif" font-size="14.00" fill="green">(0)OK</text>
</g>
<!-- TQ_02&#45;&gt;None -->
<g id="edge11" class="edge"><title>TQ_02&#45;&gt;None</title>
<path fill="none" stroke="blue" d="M56.8898,-88.1346C45.6863,-78.6795 36.1863,-66.1795 43,-54 45.3901,-49.7277 48.5387,-45.9134 52.1312,-42.5221"/>
<polygon fill="blue" stroke="blue" points="54.4478,-45.15 60.0278,-36.1437 50.0493,-39.7045 54.4478,-45.15"/>
<text text-anchor="middle" x="64.5" y="-57.8" font-family="Times,serif" font-size="14.00" fill="blue">(2)NA</text>
</g>
<!-- TQ_11&#45;&gt;Attention -->
<g id="edge15" class="edge"><title>TQ_11&#45;&gt;Attention</title>
<path fill="none" stroke="green" d="M576.619,-86.799C577.714,-75.1626 579.184,-59.5479 580.437,-46.2368"/>
<polygon fill="green" stroke="green" points="583.931,-46.4594 581.383,-36.1754 576.962,-45.8034 583.931,-46.4594"/>
<text text-anchor="middle" x="601" y="-57.8" font-family="Times,serif" font-size="14.00" fill="green">(0)OK</text>
</g>
<!-- TQ_11&#45;&gt;Undefined -->
<g id="edge17" class="edge"><title>TQ_11&#45;&gt;Undefined</title>
<path fill="none" stroke="blue" d="M512.457,-99.9437C491.082,-95.2955 469.046,-86.2484 455,-69 449.877,-62.7085 447.953,-54.3735 447.578,-46.3159"/>
<polygon fill="blue" stroke="blue" points="451.083,-46.1644 447.839,-36.0784 444.085,-45.9859 451.083,-46.1644"/>
<text text-anchor="middle" x="476.5" y="-57.8" font-family="Times,serif" font-size="14.00" fill="blue">(2)NA</text>
</g>
<!-- Fail -->
<g id="node13" class="node"><title>Fail</title>
<polygon fill="none" stroke="black" points="806,-36 752,-36 752,-0 806,-0 806,-36"/>
<text text-anchor="middle" x="779" y="-14.3" font-family="Times,serif" font-size="14.00">Fail</text>
</g>
<!-- TQ_11&#45;&gt;Fail -->
<g id="edge16" class="edge"><title>TQ_11&#45;&gt;Fail</title>
<path fill="none" stroke="red" d="M598.551,-87.9697C618.738,-74.3182 645.423,-56.5202 651,-54 680.376,-40.7257 715.88,-31.5061 742.036,-25.8744"/>
<polygon fill="red" stroke="red" points="742.844,-29.2815 751.922,-23.8203 741.419,-22.4279 742.844,-29.2815"/>
<text text-anchor="middle" x="671.5" y="-57.8" font-family="Times,serif" font-size="14.00" fill="red">(1)ER</text>
</g>
<!-- TQ_12&#45;&gt;None -->
<g id="edge18" class="edge"><title>TQ_12&#45;&gt;None</title>
<path fill="none" stroke="green" d="M717.297,-86.917C712.487,-75.4443 704.376,-61.1622 692,-54 642.356,-25.2701 247.375,-44.3531 154.736,-35.366"/>
<polygon fill="green" stroke="green" points="154.925,-31.8615 144.559,-34.0529 154.029,-38.8039 154.925,-31.8615"/>
<text text-anchor="middle" x="728" y="-57.8" font-family="Times,serif" font-size="14.00" fill="green">(0)OK</text>
</g>
<!-- TQ_12&#45;&gt;Fail -->
<g id="edge19" class="edge"><title>TQ_12&#45;&gt;Fail</title>
<path fill="none" stroke="red" d="M741.27,-87.6262C746.786,-82.0782 752.552,-75.6049 757,-69 761.768,-61.9205 765.902,-53.639 769.26,-45.8756"/>
<polygon fill="red" stroke="red" points="772.568,-47.0308 773.086,-36.4486 766.082,-44.3983 772.568,-47.0308"/>
<text text-anchor="middle" x="785.5" y="-57.8" font-family="Times,serif" font-size="14.00" fill="red">(1)ER</text>
</g>
<!-- TQ_12&#45;&gt;Fail -->
<g id="edge20" class="edge"><title>TQ_12&#45;&gt;Fail</title>
<path fill="none" stroke="blue" d="M775.41,-94.0777C788.902,-88.895 801.889,-81.0065 810,-69 815.403,-61.0023 812.593,-52.0959 806.897,-44.0415"/>
<polygon fill="blue" stroke="blue" points="809.544,-41.7504 800.437,-36.3363 804.18,-46.2479 809.544,-41.7504"/>
<text text-anchor="middle" x="833.5" y="-57.8" font-family="Times,serif" font-size="14.00" fill="blue">(2)NA</text>
</g>
</g>
</svg>
